<mxfile host="app.diagrams.net" modified="2024-05-11T07:26:21.115Z" agent="Mozilla/5.0 (Windows NT 10.0; Win64; x64) AppleWebKit/537.36 (KHTML, like Gecko) Chrome/113.0.0.0 Safari/537.36" etag="UDS0eHbAyIEHRtIXGcke" version="24.4.0" type="github">
  <diagram name="第 1 页" id="W9WQcyDblY8BYKCmj8dJ">
    <mxGraphModel dx="2074" dy="1067" grid="1" gridSize="10" guides="1" tooltips="1" connect="1" arrows="1" fold="1" page="1" pageScale="1" pageWidth="2339" pageHeight="3300" math="0" shadow="0">
      <root>
        <mxCell id="0" />
        <mxCell id="1" parent="0" />
        <mxCell id="ufHINzM9x3mb9llRD8_A-1" value="PrePass" style="rounded=0;whiteSpace=wrap;html=1;fillColor=#f5f5f5;fontColor=#333333;strokeColor=#666666;" parent="1" vertex="1">
          <mxGeometry x="620" y="250" width="50" height="30" as="geometry" />
        </mxCell>
        <mxCell id="ufHINzM9x3mb9llRD8_A-2" value="BasePass" style="rounded=0;whiteSpace=wrap;html=1;fillColor=#dae8fc;strokeColor=#6c8ebf;" parent="1" vertex="1">
          <mxGeometry x="670" y="250" width="80" height="30" as="geometry" />
        </mxCell>
        <mxCell id="ufHINzM9x3mb9llRD8_A-3" value="Lighting Pass" style="rounded=0;whiteSpace=wrap;html=1;fillColor=#d5e8d4;strokeColor=#82b366;" parent="1" vertex="1">
          <mxGeometry x="840" y="250" width="240" height="30" as="geometry" />
        </mxCell>
        <mxCell id="ufHINzM9x3mb9llRD8_A-6" value="SkyLight Pass" style="rounded=0;whiteSpace=wrap;html=1;fillColor=#ffe6cc;strokeColor=#d79b00;" parent="1" vertex="1">
          <mxGeometry x="1080" y="250" width="120" height="30" as="geometry" />
        </mxCell>
        <mxCell id="ufHINzM9x3mb9llRD8_A-7" value="Volumetric Cloud" style="rounded=0;whiteSpace=wrap;html=1;fillColor=#fff2cc;strokeColor=#d6b656;" parent="1" vertex="1">
          <mxGeometry x="1200" y="250" width="120" height="30" as="geometry" />
        </mxCell>
        <mxCell id="ufHINzM9x3mb9llRD8_A-8" value="..." style="rounded=0;whiteSpace=wrap;html=1;fillColor=#f8cecc;strokeColor=#b85450;" parent="1" vertex="1">
          <mxGeometry x="1320" y="250" width="70" height="30" as="geometry" />
        </mxCell>
        <mxCell id="ufHINzM9x3mb9llRD8_A-9" value="Post Processing" style="rounded=0;whiteSpace=wrap;html=1;fillColor=#f8cecc;strokeColor=#b85450;" parent="1" vertex="1">
          <mxGeometry x="1390" y="250" width="190" height="30" as="geometry" />
        </mxCell>
        <mxCell id="ufHINzM9x3mb9llRD8_A-10" value="Display" style="rounded=0;whiteSpace=wrap;html=1;fillColor=#e1d5e7;strokeColor=#9673a6;" parent="1" vertex="1">
          <mxGeometry x="1580" y="250" width="120" height="30" as="geometry" />
        </mxCell>
        <mxCell id="ufHINzM9x3mb9llRD8_A-23" value="&lt;font style=&quot;font-size: 14px;&quot;&gt;&lt;b style=&quot;&quot;&gt;主GPU&lt;/b&gt;&lt;/font&gt;" style="text;html=1;align=center;verticalAlign=middle;resizable=0;points=[];autosize=1;strokeColor=none;fillColor=#E6E6E6;gradientColor=none;" parent="1" vertex="1">
          <mxGeometry y="250" width="70" height="30" as="geometry" />
        </mxCell>
        <mxCell id="ufHINzM9x3mb9llRD8_A-24" value="&lt;font style=&quot;font-size: 14px;&quot;&gt;Graphics Queue&lt;/font&gt;" style="text;html=1;align=left;verticalAlign=middle;resizable=0;points=[];autosize=1;strokeColor=none;fillColor=#E6E6E6;" parent="1" vertex="1">
          <mxGeometry x="70" y="250" width="130" height="30" as="geometry" />
        </mxCell>
        <mxCell id="ufHINzM9x3mb9llRD8_A-25" value="&lt;font style=&quot;font-size: 14px;&quot;&gt;&lt;b style=&quot;&quot;&gt;主GPU&lt;/b&gt;&lt;/font&gt;" style="text;html=1;align=center;verticalAlign=middle;resizable=0;points=[];autosize=1;strokeColor=none;fillColor=#E6E6E6;gradientColor=none;" parent="1" vertex="1">
          <mxGeometry y="300" width="70" height="30" as="geometry" />
        </mxCell>
        <mxCell id="ufHINzM9x3mb9llRD8_A-26" value="&lt;font style=&quot;font-size: 14px;&quot;&gt;Copy&lt;/font&gt;&lt;span style=&quot;font-size: 14px; background-color: initial;&quot;&gt;&amp;nbsp;Queue&amp;nbsp; &amp;nbsp; &amp;nbsp; &amp;nbsp; &amp;nbsp; &amp;nbsp; &amp;nbsp; &amp;nbsp; &amp;nbsp; &amp;nbsp; &amp;nbsp; &amp;nbsp; &amp;nbsp; &amp;nbsp; &amp;nbsp; &amp;nbsp; &amp;nbsp; &amp;nbsp; &amp;nbsp; &amp;nbsp;&amp;nbsp;&lt;/span&gt;&lt;span style=&quot;font-size: 14px;&quot;&gt;&amp;nbsp;&amp;nbsp; &amp;nbsp; &amp;nbsp; &amp;nbsp; &amp;nbsp; &amp;nbsp; &amp;nbsp; &amp;nbsp; &amp;nbsp; &amp;nbsp; &amp;nbsp; &amp;nbsp; &amp;nbsp; &amp;nbsp; &amp;nbsp; &amp;nbsp; &amp;nbsp;&amp;nbsp;&lt;/span&gt;&lt;span style=&quot;font-size: 14px;&quot;&gt;&amp;nbsp;&amp;nbsp; &amp;nbsp; &amp;nbsp; &amp;nbsp; &amp;nbsp; &amp;nbsp; &amp;nbsp; &amp;nbsp; &amp;nbsp; &amp;nbsp; &amp;nbsp; &amp;nbsp; &amp;nbsp; &amp;nbsp; &amp;nbsp; &amp;nbsp; &amp;nbsp;&amp;nbsp;&lt;/span&gt;&lt;span style=&quot;font-size: 14px;&quot;&gt;&amp;nbsp;&amp;nbsp; &amp;nbsp; &amp;nbsp; &amp;nbsp; &amp;nbsp; &amp;nbsp; &amp;nbsp; &amp;nbsp; &amp;nbsp; &amp;nbsp; &amp;nbsp; &amp;nbsp; &amp;nbsp; &amp;nbsp; &amp;nbsp; &amp;nbsp; &amp;nbsp;&amp;nbsp;&lt;/span&gt;&lt;span style=&quot;font-size: 14px;&quot;&gt;&amp;nbsp;&amp;nbsp; &amp;nbsp; &amp;nbsp; &amp;nbsp; &amp;nbsp; &amp;nbsp; &amp;nbsp; &amp;nbsp; &amp;nbsp; &amp;nbsp; &amp;nbsp; &amp;nbsp; &amp;nbsp; &amp;nbsp; &amp;nbsp; &amp;nbsp; &amp;nbsp;&amp;nbsp;&lt;/span&gt;&lt;span style=&quot;font-size: 14px;&quot;&gt;&amp;nbsp;&amp;nbsp; &amp;nbsp; &amp;nbsp; &amp;nbsp; &amp;nbsp; &amp;nbsp; &amp;nbsp; &amp;nbsp; &amp;nbsp; &amp;nbsp; &amp;nbsp; &amp;nbsp; &amp;nbsp; &amp;nbsp; &amp;nbsp; &amp;nbsp; &amp;nbsp;&amp;nbsp;&lt;/span&gt;&lt;span style=&quot;font-size: 14px;&quot;&gt;&amp;nbsp; &amp;nbsp; &amp;nbsp; &amp;nbsp; &amp;nbsp; &amp;nbsp; &amp;nbsp; &amp;nbsp; &amp;nbsp; &amp;nbsp; &amp;nbsp; &amp;nbsp; &amp;nbsp; &amp;nbsp; &amp;nbsp; &amp;nbsp; &amp;nbsp; &amp;nbsp; &amp;nbsp; &amp;nbsp;&amp;nbsp;&lt;/span&gt;&lt;span style=&quot;font-size: 14px;&quot;&gt;&amp;nbsp; &amp;nbsp; &amp;nbsp;&lt;/span&gt;" style="text;html=1;align=left;verticalAlign=middle;resizable=0;points=[];autosize=1;strokeColor=none;fillColor=#E6E6E6;" parent="1" vertex="1">
          <mxGeometry x="70" y="300" width="1110" height="30" as="geometry" />
        </mxCell>
        <mxCell id="ufHINzM9x3mb9llRD8_A-27" value="&lt;font style=&quot;font-size: 14px;&quot;&gt;&lt;b style=&quot;&quot;&gt;从GPU&lt;/b&gt;&lt;/font&gt;" style="text;html=1;align=center;verticalAlign=middle;resizable=0;points=[];autosize=1;strokeColor=none;fillColor=#E6E6E6;gradientColor=none;" parent="1" vertex="1">
          <mxGeometry y="400" width="70" height="30" as="geometry" />
        </mxCell>
        <mxCell id="ufHINzM9x3mb9llRD8_A-28" value="&lt;font style=&quot;font-size: 14px;&quot;&gt;Graphics Queue&lt;/font&gt;" style="text;html=1;align=left;verticalAlign=middle;resizable=0;points=[];autosize=1;strokeColor=none;fillColor=#E6E6E6;" parent="1" vertex="1">
          <mxGeometry x="70" y="400" width="130" height="30" as="geometry" />
        </mxCell>
        <mxCell id="ufHINzM9x3mb9llRD8_A-32" value="&lt;font style=&quot;font-size: 14px;&quot;&gt;&lt;b style=&quot;&quot;&gt;从GPU&lt;/b&gt;&lt;/font&gt;" style="text;html=1;align=center;verticalAlign=middle;resizable=0;points=[];autosize=1;strokeColor=none;fillColor=#E6E6E6;gradientColor=none;" parent="1" vertex="1">
          <mxGeometry y="350" width="70" height="30" as="geometry" />
        </mxCell>
        <mxCell id="ufHINzM9x3mb9llRD8_A-33" value="&lt;font style=&quot;font-size: 14px;&quot;&gt;Copy&lt;/font&gt;&lt;span style=&quot;font-size: 14px; background-color: initial;&quot;&gt;&amp;nbsp;Queue&amp;nbsp; &amp;nbsp; &amp;nbsp; &amp;nbsp; &amp;nbsp; &amp;nbsp; &amp;nbsp; &amp;nbsp; &amp;nbsp; &amp;nbsp; &amp;nbsp; &amp;nbsp; &amp;nbsp; &amp;nbsp; &amp;nbsp; &amp;nbsp; &amp;nbsp; &amp;nbsp; &amp;nbsp; &amp;nbsp;&amp;nbsp;&lt;/span&gt;&lt;span style=&quot;font-size: 14px;&quot;&gt;&amp;nbsp;&amp;nbsp; &amp;nbsp; &amp;nbsp; &amp;nbsp; &amp;nbsp; &amp;nbsp; &amp;nbsp; &amp;nbsp; &amp;nbsp; &amp;nbsp; &amp;nbsp; &amp;nbsp; &amp;nbsp; &amp;nbsp; &amp;nbsp; &amp;nbsp; &amp;nbsp;&amp;nbsp;&lt;/span&gt;&lt;span style=&quot;font-size: 14px;&quot;&gt;&amp;nbsp;&amp;nbsp; &amp;nbsp; &amp;nbsp; &amp;nbsp; &amp;nbsp; &amp;nbsp; &amp;nbsp; &amp;nbsp; &amp;nbsp; &amp;nbsp; &amp;nbsp; &amp;nbsp; &amp;nbsp; &amp;nbsp; &amp;nbsp; &amp;nbsp; &amp;nbsp;&amp;nbsp;&lt;/span&gt;&lt;span style=&quot;font-size: 14px;&quot;&gt;&amp;nbsp;&amp;nbsp; &amp;nbsp; &amp;nbsp; &amp;nbsp; &amp;nbsp; &amp;nbsp; &amp;nbsp; &amp;nbsp; &amp;nbsp; &amp;nbsp; &amp;nbsp; &amp;nbsp; &amp;nbsp; &amp;nbsp; &amp;nbsp; &amp;nbsp; &amp;nbsp;&amp;nbsp;&lt;/span&gt;&lt;span style=&quot;font-size: 14px;&quot;&gt;&amp;nbsp;&amp;nbsp; &amp;nbsp; &amp;nbsp; &amp;nbsp; &amp;nbsp; &amp;nbsp; &amp;nbsp; &amp;nbsp; &amp;nbsp; &amp;nbsp; &amp;nbsp; &amp;nbsp; &amp;nbsp; &amp;nbsp; &amp;nbsp; &amp;nbsp; &amp;nbsp;&amp;nbsp;&lt;/span&gt;&lt;span style=&quot;font-size: 14px;&quot;&gt;&amp;nbsp;&amp;nbsp; &amp;nbsp; &amp;nbsp; &amp;nbsp; &amp;nbsp; &amp;nbsp; &amp;nbsp; &amp;nbsp; &amp;nbsp; &amp;nbsp; &amp;nbsp; &amp;nbsp; &amp;nbsp; &amp;nbsp; &amp;nbsp; &amp;nbsp; &amp;nbsp;&amp;nbsp;&lt;/span&gt;&lt;span style=&quot;font-size: 14px;&quot;&gt;&amp;nbsp; &amp;nbsp; &amp;nbsp; &amp;nbsp; &amp;nbsp; &amp;nbsp; &amp;nbsp; &amp;nbsp; &amp;nbsp; &amp;nbsp; &amp;nbsp; &amp;nbsp; &amp;nbsp; &amp;nbsp; &amp;nbsp; &amp;nbsp; &amp;nbsp; &amp;nbsp; &amp;nbsp;&lt;/span&gt;&lt;span style=&quot;font-size: 14px;&quot;&gt;&amp;nbsp; &amp;nbsp; &amp;nbsp; &amp;nbsp;&lt;/span&gt;" style="text;html=1;align=left;verticalAlign=middle;resizable=0;points=[];autosize=1;strokeColor=none;fillColor=#E6E6E6;" parent="1" vertex="1">
          <mxGeometry x="70" y="350" width="1110" height="30" as="geometry" />
        </mxCell>
        <mxCell id="ufHINzM9x3mb9llRD8_A-16" value="ShadowDepth" style="rounded=0;whiteSpace=wrap;html=1;fillColor=#FF3333;" parent="1" vertex="1">
          <mxGeometry x="520" y="350" width="80" height="30" as="geometry" />
        </mxCell>
        <mxCell id="ufHINzM9x3mb9llRD8_A-20" value="SceneColor" style="rounded=0;whiteSpace=wrap;html=1;fillColor=#FF3333;" parent="1" vertex="1">
          <mxGeometry x="700" y="350" width="70" height="30" as="geometry" />
        </mxCell>
        <mxCell id="ufHINzM9x3mb9llRD8_A-14" value="LUT" style="rounded=0;whiteSpace=wrap;html=1;fillColor=#FF3333;" parent="1" vertex="1">
          <mxGeometry x="390" y="350" width="35" height="30" as="geometry" />
        </mxCell>
        <mxCell id="ufHINzM9x3mb9llRD8_A-42" value="&lt;b&gt;&lt;font style=&quot;font-size: 18px;&quot;&gt;Frame N&lt;/font&gt;&lt;/b&gt;" style="text;html=1;align=center;verticalAlign=middle;resizable=0;points=[];autosize=1;strokeColor=none;fillColor=none;" parent="1" vertex="1">
          <mxGeometry x="840" y="180" width="100" height="40" as="geometry" />
        </mxCell>
        <mxCell id="1-rSRv_dk_VaTTCNZSAu-2" value="Lumen Lighting" style="rounded=0;whiteSpace=wrap;html=1;fillColor=#FFCC99;" vertex="1" parent="1">
          <mxGeometry x="490" y="400" width="80" height="30" as="geometry" />
        </mxCell>
        <mxCell id="1-rSRv_dk_VaTTCNZSAu-3" value="Shadow Mapping" style="rounded=0;whiteSpace=wrap;html=1;fillColor=#FFFF99;" vertex="1" parent="1">
          <mxGeometry x="390" y="400" width="100" height="30" as="geometry" />
        </mxCell>
        <mxCell id="1-rSRv_dk_VaTTCNZSAu-4" value="Lumen" style="rounded=0;whiteSpace=wrap;html=1;fillColor=#FFCC99;" vertex="1" parent="1">
          <mxGeometry x="570" y="400" width="130" height="30" as="geometry" />
        </mxCell>
        <mxCell id="1-rSRv_dk_VaTTCNZSAu-5" value="PrePass" style="rounded=0;whiteSpace=wrap;html=1;fillColor=#f5f5f5;fontColor=#333333;strokeColor=#666666;" vertex="1" parent="1">
          <mxGeometry x="200" y="400" width="50" height="30" as="geometry" />
        </mxCell>
        <mxCell id="1-rSRv_dk_VaTTCNZSAu-6" value="BasePass" style="rounded=0;whiteSpace=wrap;html=1;fillColor=#dae8fc;strokeColor=#6c8ebf;" vertex="1" parent="1">
          <mxGeometry x="250" y="400" width="80" height="30" as="geometry" />
        </mxCell>
        <mxCell id="1-rSRv_dk_VaTTCNZSAu-7" value="LUT" style="rounded=0;whiteSpace=wrap;html=1;fillColor=#f8cecc;strokeColor=#b85450;" vertex="1" parent="1">
          <mxGeometry x="330" y="400" width="60" height="30" as="geometry" />
        </mxCell>
        <mxCell id="1-rSRv_dk_VaTTCNZSAu-8" value="Frame N-1" style="rounded=0;whiteSpace=wrap;html=1;fillColor=#f5f5f5;fontColor=#333333;strokeColor=#666666;" vertex="1" parent="1">
          <mxGeometry x="200" y="250" width="420" height="30" as="geometry" />
        </mxCell>
        <mxCell id="1-rSRv_dk_VaTTCNZSAu-10" value="LUT" style="rounded=0;whiteSpace=wrap;html=1;fillColor=#FF3333;" vertex="1" parent="1">
          <mxGeometry x="425" y="300" width="35" height="30" as="geometry" />
        </mxCell>
        <mxCell id="1-rSRv_dk_VaTTCNZSAu-11" value="ShadowDepth" style="rounded=0;whiteSpace=wrap;html=1;fillColor=#FF3333;" vertex="1" parent="1">
          <mxGeometry x="600" y="300" width="80" height="30" as="geometry" />
        </mxCell>
        <mxCell id="1-rSRv_dk_VaTTCNZSAu-13" value="..." style="rounded=0;whiteSpace=wrap;html=1;fillColor=#f5f5f5;fontColor=#333333;strokeColor=#666666;" vertex="1" parent="1">
          <mxGeometry x="750" y="250" width="90" height="30" as="geometry" />
        </mxCell>
        <mxCell id="1-rSRv_dk_VaTTCNZSAu-14" value="SceneColor" style="rounded=0;whiteSpace=wrap;html=1;fillColor=#FF3333;" vertex="1" parent="1">
          <mxGeometry x="770" y="300" width="70" height="30" as="geometry" />
        </mxCell>
      </root>
    </mxGraphModel>
  </diagram>
</mxfile>
